# xmcd
#
# Track frame offsets:
#	150
#	12637
#	27311
#	39930
#	55684
#	76097
#	86676
#	101786
#	114577
#	132922
#	148312
#	164184
#	176382
#	190440
#	202321
#	220840
#	236630
#	244191
#	262617
#	279388
#	291743
#	305837
#	322936
#
# Disc length: 4571 seconds
#
# Revision: 1
# Processed by: cddbd v1.5.1PL0 Copyright (c) Steve Scherf et al.
# Submitted via: audiograbber 1.83.01
#
DISCID=5e11d917
DTITLE=Einar Ekberg - Så sjung då, mitt hjärta
DYEAR=2005
DGENRE=Contemporary ChristianChristian Rock
TTITLE0=Så sjung då mitt hjärta 2,46
TTITLE1=Löftena kunna ej svika 3,15
TTITLE2=Salighetens gåta 2,48
TTITLE3=Nyårsklockorna 3,30
TTITLE4=Jerusalem 4,32
TTITLE5=Blott en dag 2,21
TTITLE6=Som en fågel sig vilar 3,21
TTITLE7=Men jag hörde en sång 2,50
TTITLE8=Davids 32:a psalm 4,04
TTITLE9=Jag är främling 3,25
TTITLE10=Fiskarsången 3,31
TTITLE11=Samme Gud 2,42
TTITLE12=Någonstands bland skuggorna står Jesus 3,07
TTITLE13=Var ej försagd - Räkna med Gud 2,38
TTITLE14=Han giver och giver 4,06
TTITLE15=Dårens tal 3,30
TTITLE16=I came this nigth for to sing and pray 1,40
TTITLE17=Jag har hört om en stad 4,05
TTITLE18=O, hur jag längtar se staden 3,43
TTITLE19=Himmelen är underbar 2,44
TTITLE20=Ögonblicket och evigheten 3,07
TTITLE21=Tag Herre, mina händer 3,47
TTITLE22=Drömmen om himlen 4,25
EXTD=
EXTT0=
EXTT1=
EXTT2=
EXTT3=
EXTT4=
EXTT5=
EXTT6=
EXTT7=
EXTT8=
EXTT9=
EXTT10=
EXTT11=
EXTT12=
EXTT13=
EXTT14=
EXTT15=
EXTT16=
EXTT17=
EXTT18=
EXTT19=
EXTT20=
EXTT21=
EXTT22=
PLAYORDER=
